# xmcd
#
# Track frame offsets:
#	150
#	11275
#	22199
#	33430
#	45964
#	55002
#	66568
#	78265
#	90656
#	110993
#	127722
#	141159
#	153048
#	164817
#	177262
#	189061
#	200687
#	213936
#
# Disc length: 3025
#
# Revision: 1
# Processed by: cddbd v1.5.1PL0 Copyright (c) Steve Scherf et al.
# Submitted via: CDex 1.51
# Normalized: r0:TDELIM( - )
#
DISCID=ec0bcf12
DTITLE=Compilations Country - American Spirit
DYEAR=2003
DGENRE=Country
TTITLE0=Don Gibson - Oh Lonesome Me
TTITLE1=Roger Miller - King Of The Road
TTITLE2=John Lee Hooker - Boom Boom
TTITLE3=Kingston Trio - Greenback Dollar
TTITLE4=Frankie Laine - Rawhide
TTITLE5=Patsy Cline - Walkin' After Midnight
TTITLE6=Don Everly - So Sad
TTITLE7=Memphis Slim - Mistake In Life
TTITLE8=Gram Parsons and Emmylou Harris - Love Hurts
TTITLE9=Mickey Gilley - C.C. Rider
TTITLE10=T-Bone Walker - T-Bone Shuffle
TTITLE11=Waylon Jennings - Sally Was A Good Girl
TTITLE12=Jimmy Witherspoon - Voodoo Woman Blues
TTITLE13=Jimmy Rushing - Nobody Knows
TTITLE14=Willie Nelson - The Last Letter
TTITLE15=Sonny Boy Williamson - Mellow Chick Swing
TTITLE16=Howlin' Wolf - The Wolf Is At Your Door
TTITLE17=Elmore James - Dust My Broom
EXTD=YEAR: 2003
EXTT0=
EXTT1=
EXTT2=
EXTT3=
EXTT4=
EXTT5=
EXTT6=
EXTT7=
EXTT8=
EXTT9=
EXTT10=
EXTT11=
EXTT12=
EXTT13=
EXTT14=
EXTT15=
EXTT16=
EXTT17=
PLAYORDER=
